<?xml version="1.0" encoding="UTF-8"?>
<svg id="b" data-name="Layer 2" xmlns="http://www.w3.org/2000/svg" viewBox="0 0 371.61 89.04">
  <g id="c" data-name="Layer 1">
    <g>
      <path d="M30.94,71.92l-6.11,15.41H0L36.32,1.1h22.87l36.45,86.23h-25.44l-6.11-15.41M57.12,53.45l-9.54-24.21-9.66,24.21" fill="#cca644" stroke-width="0"/>
      <path d="M185.37,1.71l-28.13,41.71,29.35,43.91h-27.28l-16.39-25.93-16.51,25.93h-26.66l29.35-43.54L100.98,1.71h27.27l15.04,24.09,15.41-24.09h26.66Z" fill="#cca644" stroke-width="0"/>
      <path d="M186.27,44.76v-.24c0-24.58,19.81-44.52,46.23-44.52s45.98,19.69,45.98,44.28v.24c0,24.58-19.81,44.52-46.23,44.52s-45.98-19.69-45.98-44.28ZM254.15,44.76v-.24c0-12.47-8.8-23.11-21.89-23.11s-21.77,10.52-21.77,22.87v.24c0,12.35,8.93,23.11,22.02,23.11s21.64-10.52,21.64-22.87Z" fill="#cca644" stroke-width="0"/>
      <path d="M290.77,1.71h22.14l35.22,45.25V1.71h23.48v85.61h-20.67l-36.69-46.96v46.96h-23.48V1.71Z" fill="#cca644" stroke-width="0"/>
    </g>
  </g>
</svg>