<?xml version="1.0" encoding="UTF-8"?>
<svg id="b" data-name="Layer 2" xmlns="http://www.w3.org/2000/svg" viewBox="0 0 237.15 79.87">
  <g id="c" data-name="Layer 1">
    <g>
      <path d="M46.06,51.69h8.57l1.75-10.9h-10.32v-7.59c0-3.12,1.17-5.45,5.84-5.45h5.06v-9.93c-2.73-.39-5.84-.78-8.57-.78-8.96,0-15.19,5.45-15.19,15.19v8.57h-9.74v10.9h9.74v27.67C14.71,76.05.5,60.06.5,40.78.5,19.37,18.02,1.84,39.44,1.84s38.94,17.52,38.94,38.94c0,19.28-13.82,35.24-32.32,38.55v-27.65Z" fill="none" stroke="#fffef6" stroke-linejoin="round"/>
      <path d="M111.88,11.34c.82-2.16,1.96-4.15,3.64-5.76,6.72-6.55,17.84-4.91,22.4,3.33,3.43,6.24,7.07,12.35,10.6,18.52,5.9,10.26,11.87,20.51,17.7,30.81,4.91,8.61-.41,19.49-10.15,20.96-5.97.89-11.56-1.85-14.65-7.2-5.18-9.02-10.39-18.04-15.57-27.03-.1-.21-.24-.38-.38-.55-.55-.45-.79-1.1-1.13-1.68-2.3-4.05-4.67-8.06-6.96-12.08-1.48-2.61-3.02-5.18-4.49-7.79-1.34-2.33-1.96-4.87-1.89-7.55.1-1.37.27-2.74.89-3.98" fill="none" stroke="#fffef6" stroke-linejoin="round"/>
      <path d="M111.88,11.34c-.31,1.23-.58,2.47-.65,3.77-.1,2.88.62,5.56,2.06,8.06,3.77,6.48,7.55,13,11.29,19.52.34.58.62,1.17.96,1.72-2.06,3.57-4.12,7.1-6.21,10.67-2.88,4.97-5.76,9.98-8.68,14.96-.14,0-.17-.07-.21-.17-.03-.27.07-.51.14-.79,1.41-5.15.24-9.71-3.29-13.62-2.16-2.37-4.91-3.7-8.06-4.15-4.12-.58-7.75.48-11.01,3.05-.58.45-.96,1.1-1.65,1.44-.14,0-.21-.07-.24-.17,1.65-2.85,3.26-5.69,4.91-8.54,6.79-11.8,13.58-23.6,20.41-35.37.07-.14.17-.24.24-.38" fill="none" stroke="#fffef6" stroke-linejoin="round"/>
      <path d="M86.46,55.73c.65-.58,1.27-1.2,1.96-1.75,8.34-6.59,20.86-1.82,22.68,8.61.45,2.5.21,4.91-.55,7.31-.03.21-.07.38-.14.58-.31.55-.58,1.13-.93,1.68-3.05,5.04-7.55,7.55-13.45,7.17-6.76-.48-12.08-5.56-13-12.28-.45-3.26.21-6.31,1.89-9.13.34-.62.75-1.17,1.13-1.78.17-.14.1-.41.41-.41" fill="none" stroke="#fffef6" stroke-linejoin="round"/>
      <path d="M181.51.5l15.72,5.6v55.36l22.19-12.71-10.77-5.17-6.89-17.02,34.89,12.28v17.88l-39.42,22.62-15.72-8.83V.5Z" fill="none" stroke="#fffef6" stroke-linejoin="round"/>
    </g>
  </g>
</svg>