<?xml version="1.0" encoding="UTF-8"?>
<svg id="b" data-name="Layer 2" xmlns="http://www.w3.org/2000/svg" viewBox="0 0 89.22 100.4">
  <g id="c" data-name="Layer 1">
    <path d="M44.61,99.9c-1.37,0-2.65-.37-3.84-1l-12.15-7.21c-1.83-1-.91-1.37-.37-1.55,2.47-.82,2.92-1,5.48-2.47.27-.18.64-.09.91.09l9.31,5.57c.37.18.82.18,1.1,0l36.44-21.1c.37-.18.55-.55.55-1V29.13c0-.46-.18-.82-.55-1L45.07,7.12c-.37-.18-.82-.18-1.1,0L7.53,28.12c-.37.18-.55.64-.55,1v42.1c0,.37.18.82.55,1l9.95,5.75c5.39,2.74,8.77-.46,8.77-3.65v-41.55c0-.55.46-1.1,1.1-1.1h4.66c.55,0,1.1.46,1.1,1.1v41.55c0,7.21-3.93,11.42-10.78,11.42-2.1,0-3.74,0-8.4-2.28l-9.59-5.48c-2.37-1.37-3.84-3.93-3.84-6.67V29.22c0-2.74,1.46-5.3,3.84-6.67L40.77,1.46c2.28-1.28,5.39-1.28,7.67,0l36.44,21.1c2.37,1.37,3.84,3.93,3.84,6.67v42.1c0,2.74-1.46,5.3-3.84,6.67l-36.44,21.1c-1.19.55-2.56.82-3.84.82ZM55.84,70.95c-15.98,0-19.27-7.31-19.27-13.52,0-.55.46-1.1,1.1-1.1h4.75c.55,0,1,.37,1,.91.73,4.84,2.83,7.21,12.51,7.21,7.67,0,10.96-1.74,10.96-5.84,0-2.37-.91-4.11-12.88-5.3-9.95-1-16.16-3.2-16.16-11.14,0-7.4,6.21-11.78,16.62-11.78,11.69,0,17.44,4.02,18.17,12.79,0,.27-.09.55-.27.82-.18.18-.46.37-.73.37h-4.75c-.46,0-.91-.37-1-.82-1.1-5.02-3.93-6.67-11.42-6.67-8.4,0-9.41,2.92-9.41,5.11,0,2.65,1.19,3.47,12.51,4.93,11.23,1.46,16.53,3.56,16.53,11.42-.09,8.04-6.67,12.6-18.26,12.6h0Z" fill="none" stroke="#cca644" stroke-miterlimit="10"/>
  </g>
</svg>