<?xml version="1.0" encoding="UTF-8"?>
<svg id="b" data-name="Layer 2" xmlns="http://www.w3.org/2000/svg" viewBox="0 0 141.7 94.8">
  <g id="c" data-name="Layer 1">
    <path d="M79.29,94.3h52.06c1.66,0,3.25-.58,4.69-1.41,1.44-.82,2.92-1.86,3.75-3.28.83-1.43,1.41-3.04,1.41-4.69,0-1.65-.58-3.26-1.41-4.69l-35.18-60.5c-.83-1.43-1.84-2.46-3.28-3.28-1.44-.82-3.5-1.41-5.16-1.41s-3.25.58-4.69,1.41c-1.44.82-2.45,1.86-3.28,3.28l-8.91,15.48L61.47,5.19c-.83-1.43-1.84-2.93-3.28-3.75-1.44-.82-3.03-.94-4.69-.94s-3.25.11-4.69.94c-1.44.82-2.92,2.33-3.75,3.75L1.44,80.23c-.83,1.43-.94,3.04-.94,4.69,0,1.65.11,3.26.94,4.69.83,1.43,2.31,2.46,3.75,3.28,1.44.82,3.03,1.41,4.69,1.41h32.83c13.01,0,22.48-5.84,29.08-16.88l15.95-27.67,8.44-14.54,25.8,44.09h-34.24l-8.44,15.01ZM42.24,79.29h-22.98L53.5,20.2l17.35,29.55-11.49,20.04c-4.38,7.17-9.38,9.51-17.11,9.51Z" fill="none" stroke="#fffef6" stroke-miterlimit="10"/>
  </g>
</svg>