<?xml version="1.0" encoding="UTF-8"?>
<svg id="b" data-name="Layer 2" xmlns="http://www.w3.org/2000/svg" viewBox="0 0 139.96 158.13">
  <g id="c" data-name="Layer 1">
    <g>
      <path d="M97.7,18.72c.65,0,1.1.5,2.23,1.64,3.15,3.15,8.39,8.36,8.39,8.36l12.69.85c.74.05,1.34.61,1.45,1.34l16.94,115.55-48.57,11.04,6.87-138.77Z" fill="none" stroke="#fffef6" stroke-miterlimit="10"/>
      <path d="M15.78,43.44s70.41-21.48,80.06-24.46c.6-.18.96-.26,1.85-.26l-6.87,138.77L.56,140.32,12.95,46.76c.21-1.57,1.32-2.86,2.83-3.31Z" fill="none" stroke="#fffef6" stroke-miterlimit="10"/>
      <g>
        <path d="M70.8,11.25c1.18,2.95,1.87,7.17,1.98,12.31.02.85.02,1.68,0,2.49,2.04-.62,4.01-1.23,5.89-1.8,0-.24,0-.48-.01-.72-.1-4.84-.65-8.94-1.65-12.28" fill="none" stroke="#fffef6" stroke-miterlimit="10"/>
        <path d="M73.85,4.78c-.12-.16-.25-.32-.38-.46-2.18-2.5-5.08-3.81-8.39-3.81h-.02c-11.35.02-20.83,7.3-27.4,21.07-3.17,6.63-4.93,13.19-5.77,16.96,2.07-.63,4.27-1.3,6.57-2.01.94-3.48,2.41-8.03,4.57-12.53,2.52-5.24,5.47-9.39,8.76-12.33,3.92-3.5,8.39-5.27,13.29-5.28h.01c.57,0,1.1.08,1.59.22" fill="none" stroke="#fffef6" stroke-miterlimit="10"/>
        <path d="M87.94,14.26c-3.65-6.22-8.33-9.51-13.55-9.51,0,0,0,0,0,0-.18,0-.36.03-.54.03,1.33,1.67,2.39,3.83,3.18,6.46,2.05.91,3.98,2.87,5.78,5.91,1.08,1.83,1.89,3.69,2.42,5.1,2.12-.65,4.02-1.23,5.64-1.73-.62-1.66-1.58-3.95-2.93-6.25Z" fill="none" stroke="#fffef6" stroke-miterlimit="10"/>
        <path d="M66.67,6.61c-2.31,1.18-4.48,2.91-6.49,5.19-3.06,3.48-5.74,8.27-7.98,14.23-.89,2.38-1.65,4.75-2.27,6.99,2.24-.69,4.52-1.38,6.79-2.07.31-.94.64-1.89,1-2.84,1.99-5.29,4.31-9.47,6.89-12.42,1.95-2.23,4-3.69,6.19-4.44-.5-1.26-1.09-2.29-1.77-3.06-.69-.79-1.47-1.31-2.36-1.58Z" fill="none" stroke="#fffef6" stroke-miterlimit="10"/>
      </g>
      <path d="M22.14,124.16l4.1-13.65c5.4,4.41,11.14,7.86,16.55,6.92,4.86-.84,7.95-8.42-.65-14.68-7.7-5.61-15.06-12.72-11.5-26.28,3.05-11.65,11.04-19.37,23.48-21.8,10.04-1.96,17.11,0,20.11,1.88l-5.81,17.77c-3.45-1.78-6.9-2.81-12.34-2.81-1.99,0-6.82.06-8.98,4.68-1.96,4.21,1.77,8,6.17,10.85,8.52,5.52,17.11,12.91,14.12,28.06-2.52,12.78-12.39,18.24-20.76,18.8-10.85.73-20.48-4.68-24.49-9.73Z" fill="none" stroke="#fffef6" stroke-miterlimit="10"/>
    </g>
  </g>
</svg>