<?xml version="1.0" encoding="UTF-8"?>
<svg id="b" data-name="Layer 2" xmlns="http://www.w3.org/2000/svg" viewBox="0 0 163.06 163.06">
  <g id="c" data-name="Layer 1">
    <rect width="163.06" height="163.06" fill="#585958" stroke-width="0"/>
    <g>
      <path d="M26.31,37.09l-4.05-10.29-4.11,10.29h8.16ZM15.19,44.94l-2.6,6.55H2.05S17.48,14.86,17.48,14.86h9.71s15.48,36.62,15.48,36.62h-10.81s-2.6-6.55-2.6-6.55h-14.08Z" fill="#fffef6" stroke-width="0"/>
      <path d="M80.79,15.12l-11.95,17.72,12.47,18.65h-11.59s-6.96-11.01-6.96-11.01l-7.01,11.01h-11.33s12.47-18.49,12.47-18.49l-11.95-17.87h11.58s6.39,10.23,6.39,10.23l6.55-10.23h11.33Z" fill="#fffef6" stroke-width="0"/>
      <path d="M110,33.4v-.1c0-5.3-3.74-9.82-9.3-9.82s-9.25,4.47-9.25,9.71v.1c0,5.25,3.79,9.82,9.35,9.82s9.19-4.47,9.19-9.71ZM81.17,33.4v-.1c0-10.44,8.42-18.91,19.64-18.91s19.53,8.36,19.53,18.81v.1c0,10.44-8.42,18.91-19.64,18.91s-19.53-8.36-19.53-18.81Z" fill="#fffef6" stroke-width="0"/>
      <path d="M125.56,15.12h9.4s14.96,19.22,14.96,19.22V15.12h9.97v36.36h-8.78s-15.59-19.95-15.59-19.95v19.95h-9.97V15.12Z" fill="#fffef6" stroke-width="0"/>
    </g>
    <g>
      <path d="M3.32,111.06v-16.32l46.08-18.36v16.32l-30.32,10.2,30.32,10.11v16.41L3.32,111.06Z" fill="#cca644" stroke-width="0"/>
      <path d="M94.37,61.54h14.28l-41.08,85.86h-14.28l41.08-85.86Z" fill="#cca644" stroke-width="0"/>
      <path d="M113.84,113.1l30.32-10.11-30.32-10.2v-16.41l46.08,18.36v16.32l-46.08,18.36v-16.32Z" fill="#cca644" stroke-width="0"/>
    </g>
  </g>
</svg>